<?xml version="1.0" standalone="no"?>
<!DOCTYPE svg PUBLIC "-//W3C//DTD SVG 1.1//EN" "http://www.w3.org/Graphics/SVG/1.1/DTD/svg11.dtd">
<svg xmlns="http://www.w3.org/2000/svg">
<metadata>Generated by Fontastic.me</metadata>
<defs>
<font id="icons" horiz-adv-x="512">
<font-face font-family="icons" units-per-em="512" ascent="480" descent="-32"/>
<missing-glyph horiz-adv-x="512" />

<glyph glyph-name="storytime" unicode="&#57344;" d="M40 299l0-150c0-41 15-77 44-106 29-29 64-43 105-43l43 0c37 0 70 12 98 36 27 25 44 55 49 92l2 0c23 0 44 8 61 25 17 17 25 37 25 60 0 23-8 43-25 60-17 17-38 26-61 26 0 11-4 21-12 29-9 9-19 13-30 13l-256 0c-12 0-22-4-30-13-9-8-13-18-13-29z m341-43c12 0 22-4 31-13 8-8 12-18 12-30 0-11-4-21-12-30-9-8-19-12-31-12z m-42-107c0-29-10-54-31-75-21-21-46-31-76-31l-43 0c-29 0-54 10-75 31-21 21-31 46-31 75l0 150 256 0z m-154 329c7 13 5 23-6 30-11 7-21 6-28-5l-11-14c-12-19-17-40-14-63 2-22 11-41 27-57 4-4 9-6 15-6 6 0 11 2 15 6 9 10 9 20 0 30-9 9-14 19-15 31-1 13 2 24 9 35z m75-53l8 8c9 9 10 19 2 30-3 4-7 6-13 6-7 1-12-1-16-4l-9-8c-15-13-21-28-19-45 2-19 13-34 32-45 1-3 4-4 8-4 8 0 15 3 20 10 7 13 4 23-9 30-7 5-11 8-11 11z"/>
<glyph glyph-name="redis" unicode="&#57345;" d="M512 206c0-5-7-10-20-17-27-14-169-73-199-88-30-16-47-16-71-4-24 11-174 72-201 85-14 6-21 12-21 17l0-52c0-5 7-11 21-17 27-13 177-74 201-85 24-12 41-12 71 4 30 16 172 74 199 88 14 7 20 13 20 18l0 51c0 0 0 0 0 0z m0 84c0-4-7-10-20-17-27-14-169-72-199-88-30-16-47-15-71-4-24 11-174 72-201 85-14 6-21 12-21 17l0-52c0-5 7-10 21-17 27-13 177-74 201-85 24-11 41-11 71 4 30 16 172 74 199 88 14 8 20 13 20 18l0 51z m0 88c0 5-7 10-20 15-27 9-168 65-195 75-27 10-38 10-69-2-32-11-182-70-208-80-14-5-20-10-20-15l0-52c0-5 7-11 21-17 27-13 177-74 201-85 24-12 41-12 71 4 30 16 172 74 199 88 14 7 20 13 20 18l0 51z m-329-49l119 18-36-52z m263 47l-78-30-70 27 78 31z m-206 51l-12 21 36-14 34 11-9-21 34-13-44-5-10-24-16 27-52 4z m-89-30c35 0 64-11 64-24 0-14-29-25-64-25-35 0-63 11-63 25 0 13 28 24 63 24z"/>
<glyph glyph-name="redux" unicode="&#57346;" d="M355 160c18 2 33 18 32 37-1 20-17 35-37 35l-1 0c-20 0-36-17-35-37 1-11 5-19 10-25-22-43-55-75-106-102-34-18-71-25-106-20-29 4-52 17-66 38-21 32-23 67-6 101 13 25 32 44 45 53-4 10-7 21-9 32-94-67-85-160-56-204 21-32 65-52 113-52 13 0 26 1 39 4 84 16 146 66 182 139z m114 80c-50 58-123 90-206 90l-11 0c-5 12-17 19-31 19l-1 0c-20 0-36-17-36-37 1-19 17-35 37-35l1 0c15 0 27 9 32 22l12 0c50 0 96-14 139-43 32-21 56-49 69-83 11-27 11-54-1-76-18-35-49-54-90-54-25 0-50 8-63 14-8-7-21-17-30-24 28-12 57-20 84-20 63 0 109 35 127 69 19 39 17 103-32 158z m-331-92c1-19 17-35 37-35l1 0c10 0 19 5 26 12 6 7 10 16 9 26 0 19-16 35-36 35l-1 0c-1 0-3 0-5 0-26 44-38 92-33 144 2 39 15 73 38 101 19 24 55 36 80 36 69 2 98-84 100-118l32-10c-8 105-73 160-135 160-59 0-113-43-134-105-30-83-11-163 26-227-3-4-5-12-5-19z"/>
<glyph glyph-name="gatsby" unicode="&#57347;" d="M256 512c-142 0-256-114-256-256 0-142 114-256 256-256 142 0 256 114 256 256 0 142-114 256-256 256z m-200-258l198-198c-109 0-198 89-198 198z m244-194l-240 240c20 90 100 156 196 156 64 0 124-30 162-82l-28-25c-31 45-82 72-136 72-69 0-131-44-154-109l209-210c52 18 92 63 103 116l-87 0 0 38 131 0c0-96-67-176-156-196z"/>
<glyph glyph-name="github" unicode="&#57348;" d="M256 506c-141 0-256-115-256-256 0-114 73-209 175-243 13-3 17 5 17 12 0 6 0 22 0 44-71-16-86 34-86 34-12 30-29 37-29 37-23 16 2 16 2 16 26-2 39-26 39-26 23-40 60-28 75-22 2 17 9 28 16 35-57 6-116 28-116 126 0 28 10 51 26 69-3 6-12 32 2 68 0 0 22 6 71-27 20 6 42 9 64 9 21 0 43-3 64-9 48 33 70 27 70 27 13-36 5-62 2-68 17-18 26-41 26-69 0-98-59-120-116-126 9-8 17-24 17-48 0-34 0-61 0-70 0-6 4-14 17-12 103 34 176 130 176 243 0 141-115 256-256 256z"/>
<glyph glyph-name="sass" unicode="&#57349;" d="M241 158c0-1 0-1 0 0z m200 69c-16 0-32-3-47-11-4 10-9 18-10 25-1 7-2 11-1 20 1 8 6 21 6 22 0 0-1 5-11 5-11 0-19-2-21-5-1-5-3-10-4-15-2-9-20-43-31-60-4 6-6 12-7 17-1 8-2 12-1 21 1 8 6 20 6 21 0 1-1 6-11 6-11 0-20-2-21-5-1-3-2-9-4-15-2-7-27-62-34-77-3-7-6-13-8-17 0-1 0-1-1-1 1 0 1 0 1 0-2-3-3-5-3-5l0 0c-1-3-3-5-4-5 0 0-1 7 1 16 3 19 12 49 12 50 0 1 2 6-6 9-7 3-10-2-10-2-1 0-1-1-1-1 0 0 8 34-16 34-15 0-35-17-45-31-6-4-20-11-34-19l-17-9c0 0-1 1-1 1-29 31-82 52-79 93 0 15 6 54 101 102 79 39 141 28 152 5 16-34-33-98-115-107-31-3-47 9-51 13-4 5-5 5-7 4-2-1-1-5 0-8 3-6 13-17 30-23 15-5 51-7 95 10 50 19 88 72 77 116-12 45-87 60-157 35-43-15-88-39-121-69-39-37-45-69-43-82 10-47 75-78 101-100l-4-2c-13-7-63-33-75-60-14-31 2-53 13-56 33-10 68 7 86 34 18 28 16 64 8 80 0 0 0 0-1 1 10 5 20 11 29 16-3-8-5-19-6-34-2-17 6-40 15-49 4-4 9-4 12-4 11 0 16 9 22 20 7 13 13 29 13 29 0 0-8-42 13-42 7 0 15 10 18 14l0 0c0 0 0 1 1 1 0 2 1 2 1 2l0 1c3 5 10 17 20 36 13 26 25 58 25 58 1-7 3-14 5-21 2-8 7-16 11-24-3-4-5-7-5-7 0 0 0 0 0 0-3-3-5-6-8-10-10-12-23-26-24-30-2-5-2-8 2-11 3-2 8-2 13-2 9 1 15 3 18 4 6 2 12 5 17 9 10 7 16 18 15 32 0 7-3 15-6 22 1 2 2 3 3 4 10 16 20 32 28 49 1-7 3-14 5-21 2-6 6-13 9-20-15-12-24-26-27-36-6-17-1-24 7-26 4-1 10 1 14 3 6 2 12 5 17 9 10 7 20 17 19 31 0 7-2 13-4 19 13 5 29 8 50 6 44-6 53-33 51-45-1-12-11-18-14-20-3-2-4-3-4-4 1-2 2-2 5-2 3 1 23 10 24 31 1 28-25 58-71 57z m-344-115c-14-17-35-23-44-18-9 6-6 30 13 47 11 10 25 20 34 26 2 1 6 3 9 5 1 0 1 1 1 1 1 0 2 1 3 1 6-24 0-46-16-62z m108 73c-5-13-16-45-23-43-5 1-9 26-1 50 4 12 13 26 18 32 8 9 17 12 19 8 3-5-10-40-13-47z m89-43c-2-1-4-2-5-1-1 0 0 2 0 2 0 0 12 12 16 17 3 3 6 7 9 11 0 0 0 0 0-1 0-14-14-24-20-28z m68 16c-1 1-1 5 4 16 2 5 7 13 15 20 1-3 2-6 2-9 0-18-13-24-21-27z"/>
<glyph glyph-name="typescript" unicode="&#57350;" d="M0 256l0-256 512 0 0 512-512 0z m413 20c12-2 23-9 32-18 4-5 11-14 12-16 0-1-22-16-36-24 0-1-2 1-4 5-7 9-14 13-24 14-16 1-26-7-26-21 0-3 1-6 2-9 4-7 10-11 30-20 37-16 52-26 62-41 11-16 13-43 6-62-8-22-28-36-57-41-8-2-29-1-39 0-20 4-40 14-52 28-4 5-14 18-13 19 0 1 2 2 5 3l19 11 14 9 3-5c5-6 14-15 20-18 16-9 39-8 50 2 4 4 7 10 6 16 0 5 0 8-3 13-4 5-12 10-36 20-26 11-37 18-48 30-6 7-11 16-14 25-2 8-2 26-1 33 6 26 25 43 53 49 9 1 30 1 39-2z m-121-21l1-21-67 0 0-189-47 0 0 189-67 0 0 21c0 11 0 20 1 21 0 0 40 0 90 0l89 0z"/>
<glyph glyph-name="graphql" unicode="&#57351;" d="M300 453l105-61c10 11 24 16 38 14 15-1 27-10 35-22 7-12 8-28 2-41-6-13-17-23-31-26l0-122c14-3 25-13 31-26 6-13 5-29-2-41-8-13-21-21-35-23-15-1-29 4-39 15l-105-60c5-14 3-29-6-41-9-12-22-19-37-19-14 0-28 7-37 18-8 12-11 27-7 41l-105 60c-8-8-20-14-32-14-12 0-24 4-33 13-12 11-16 29-12 45 4 16 17 28 33 32l0 122c-17 4-31 18-34 36-3 17 4 35 18 45 15 11 34 12 50 3 3-2 7-5 10-8l105 60c-7 25 7 50 31 57 16 5 33 1 45-11 12-12 17-30 12-46z m-11-18c-1-1-1-1-1-2l137-238c1 0 2 0 2 0l0 122c-12 3-22 10-28 21-6 10-8 22-5 34 0 1 0 1 0 2z m-65-2l-1 2-105-61c7-24-7-50-32-57l-1 0 0-122 2 0 138 238z m45-11c-9-2-17-2-26 0l-138-238c7-6 11-14 13-22l276 0c2 8 6 16 13 22z m21-346l105 61c-1 1-1 2-1 3l-276 0 0-2 105-61c9 9 21 14 33 14 13 0 25-5 34-15z"/>
<glyph glyph-name="heroku" unicode="&#57352;" d="M440 512l-368 0c-12 0-24-5-32-13-9-9-14-21-14-33l0-420c0-12 5-24 14-33 8-8 20-13 32-13l368 0c12 0 24 5 32 13 9 9 14 21 14 33l0 420c0 12-5 24-14 33-8 8-20 13-32 13z m20-466c0-11-9-20-20-20l-368 0c-5 0-10 2-14 6-4 3-6 9-6 14l0 420c0 11 9 20 20 20l368 0c11 0 20-9 20-20z m-319 31l58 51-58 51z m208 207c-10 10-30 23-62 23-34 0-70-9-96-18l0 146-51 0 0-221 36 16c0 0 59 27 110 27 26 0 32-14 32-27l0-153 51 0 0 153c2 4 2 32-20 54z m-68 68l51 0c23 27 35 54 39 83l-52 0c-5-29-18-56-38-83z"/>
<glyph glyph-name="vue" unicode="&#57353;" d="M512 478l-212 0-44-76-44 76-212 0 256-444z m-256-266l-146 252 95 0 51-89 51 89 95 0z"/>
<glyph glyph-name="javascript" unicode="&#57354;" d="M0 512l512 0 0-512-512 0z m470-390c-4 24-19 43-64 61-16 8-33 13-38 25-2 7-3 11-1 15 3 14 19 18 32 14 8-3 16-9 21-19 22 14 22 14 37 24-5 9-8 12-12 16-14 15-32 23-61 22l-15-2c-14-3-28-11-36-21-25-28-17-76 12-95 29-22 72-27 77-47 5-25-18-33-42-31-17 4-27 13-37 29l-39-22c4-11 9-15 17-24 37-38 130-36 146 21 1 2 6 15 2 35z m-192 155l-48 0c0-42 0-83 0-124 0-26 2-51-3-58-7-15-25-13-33-10-9 4-13 10-18 18-1 2-2 4-3 4l-38-24c6-13 16-25 28-32 18-11 43-15 68-9 17 5 31 15 39 30 11 20 8 44 8 72 1 43 0 87 0 131z"/>
<glyph glyph-name="jest" unicode="&#57355;" d="M475 260c0 30-21 56-50 64l64 188-316 0 64-189c-28-8-48-34-48-63 0-23 11-42 28-54-7-10-15-19-23-27-16-15-34-27-55-35-17 12-25 33-18 52 72 23 56 129-19 130-37 0-67-30-67-67 0-18 7-34 19-46-1-2-2-4-3-7-10-20-21-43-25-69-9-52 5-94 39-117 19-13 41-20 63-20 39 0 79 20 117 39 27 13 55 27 83 34 10 2 21 4 32 6 23 3 47 6 68 19 24 14 41 38 46 65 4 21 0 43-9 62 6 10 10 22 10 35z m-29 0c0-21-17-37-38-37-35 0-50 44-23 66l0 0c2 1 3 2 4 3 0 0 1 0 1 0 0 0 1 1 1 1 0 0 1 0 1 0 0 1 1 1 2 1 0 1 1 1 2 1 0 0 0 0 0 0 1 0 2 1 2 1 0 0 1 0 1 0 0 0 1 0 2 0l0 0 2 1c0 0 0 0 1 0 0 0 1 0 1 0l1 0c1 0 2 0 3 0l1 0c1 0 2 0 2 0l0 0c2 0 3 0 4 0 17-4 30-19 30-37z m-232 222l233 0-53-158c-2 0-4-1-7-1l-56 114-57-114c-2 1-4 2-7 2z m106-209c-2 13-9 26-20 35l31 62 31-63c-10-9-16-21-19-34z m-74 23c1 0 1 0 2 1l0 0c1 0 2 0 2 0l1 0c0 0 1 0 1 0l6 0c1 0 1 0 2 0 0 0 0 0 1 0 0 0 1 0 1-1 0 0 0 0 1 0l2 0 0 0c1 0 1 0 2-1 0 0 0 0 0 0 1 0 1 0 2 0 0 0 0-1 0-1 1 0 1 0 2 0l0 0c1-1 2-1 2-1l0 0c1-1 1-1 2-1 0 0 0-1 0-1 1 0 1 0 2-1l0 0c2-1 4-3 5-4l0 0c7-7 11-16 11-26-2-48-74-48-75 0 0 17 11 32 28 36z m-146 1c21 0 37-16 37-37 0-21-16-37-37-37-20 0-37 16-37 37 0 20 17 37 37 37z m345-128c-4-20-15-36-32-46-16-9-36-12-57-15-12-2-24-4-35-6-31-8-61-23-89-37-37-18-72-35-104-35-16 0-33 5-46 14-33 23-31 65-27 88 3 22 13 42 23 62 1 1 1 2 2 3 3-1 6-2 10-3-6-31 10-64 41-80l6-3 6 3c26 9 50 24 71 44 12 11 22 23 31 36 34-5 66 16 74 49l25 0c8-29 34-49 64-49 13 0 24 3 34 9 4-11 5-23 3-34z"/>
<glyph glyph-name="ko-fi" unicode="&#57356;" d="M510 321c-17 87-104 98-104 98l-391 0c-13 0-14-17-14-17 0 0-2-156-1-252 4-52 56-57 56-57 0 0 176 0 255 1 52 9 57 55 57 80 92-6 158 60 141 147z m-237-75c-26-31-85-85-85-85 0 0-3-2-7 0-1 1-2 2-2 2-10 9-72 65-86 84-15 21-22 58-2 79 20 22 64 24 93-8 0 0 33 38 74 20 41-17 39-64 15-92z m132-10c-20-3-36-1-36-1l0 122 38 0c0 0 42-12 42-57 0-41-21-57-44-64z"/>
<glyph glyph-name="linkedin" unicode="&#57357;" d="M132 64l-93 0 0 299 93 0z m-46 340c-30 0-54 25-54 54 0 30 24 54 54 54 30 0 54-24 54-54 0-29-25-54-54-54z m394-340l-93 0 0 146c0 34 0 79-48 79-48 0-56-38-56-77l0-148-93 0 0 299 90 0 0-41 1 0c12 24 43 49 88 49 94 0 111-62 111-143l0-164z"/>
<glyph glyph-name="mongodb" unicode="&#57358;" d="M366 309c-26 119-90 157-97 172-7 11-15 31-15 31 0 0 0-1-1-1l0 0c0-1 0-1 0-1l0-1 0 0 0-1 0 0c0 0 0 0 0 0l0-1c0 0 0 0 0 0l0 0c0-1 0-1 0-1l0 0c0-1 0-1 0-1l0 0c0-1 0-1 0-1l0 0 0 0 0-1 0 0 0 0-1 0 0 0 0 0 0-1 0 0 0 0 0 0 0 0 0 0 0-1 0 0 0 0 0 0 0 0 0 0 0-1 0 0 0 0 0 0c0 0 0 0 0 0l0 0 0 0c0-1-1-1-1-1 0 0 0 0 0 0l0 0 0 0 0 0 0 0 0-1 0 0 0 0 0 0 0 0 0 0 0 0 0 0 0-1 0 0 0 0-1 0 0 0 0 0 0 0 0 0 0 0 0 0 0-1 0 0 0 0 0 0 0 0 0 0 0 0 0 0 0 0 0 0 0 0 0 0 0 0 0 0 0-1-1 0 0 0 0 0 0 0 0 0 0 0 0 0 0 0 0 0 0 0 0 0 0-1 0 0 0 0 0 0 0 0 0 0 0 0c0 0 0 0 0 0l0 0 0 0-1-1c0 0 0 0 0 0 0 0 0 0 0 0l0 0 0 0 0 0 0 0 0 0 0 0 0 0 0 0 0 0 0 0 0-1-1 0 0 0 0 0 0 0 0 0 0 0 0 0 0 0 0 0 0 0 0 0 0 0 0 0 0 0 0 0 0 0 0 0 0 0 0 0 0 0 0 0 0-1-1 0 0 0 0 0 0 0 0 0 0 0 0 0 0 0 0 0 0 0 0 0 0 0 0 0 0 0 0 0 0 0 0 0 0-1 0 0 0 0 0 0 0 0-1 0 0 0 0 0 0 0 0 0 0 0 0 0 0 0 0 0 0 0 0 0 0 0 0 0 0-1 0 0 0 0 0 0 0 0 0 0 0 0 0 0 0 0-1 0 0 0 0 0 0 0 0 0 0 0 0 0 0 0 0 0 0 0 0 0 0-1 0 0 0 0 0 0 0 0c0 0 0 0 0 0l0 0 0 0 0 0-1 0 0 0 0 0 0 0 0 0 0 0 0 0 0 0 0-1c0 0 0 0 0 0 0 0 0 0-1 0 0 0 0-1 0-1 0 0-1 0-1 0 0 0-1-1-1-1 0 0-1-1-1-1l-1 0-3-4-1 0c-3-3-7-7-12-12l-1 0c-29-30-74-93-79-194-1-8-1-16 0-24l0 0c2-40 15-74 30-102 7-11 13-21 20-30 24-31 48-49 54-54 9-22 8-59 8-59l14-5c0 0-3 37 1 54 1 6 4 10 8 14 2 2 9 7 17 14 0 0 0 1 1 1 32 30 93 105 72 226z"/>
<glyph glyph-name="nestjs" unicode="&#57359;" d="M301 511c-3 0-7-1-10-2 7-4 11-10 12-17 1-1 1-2 1-3 0 0 0-1 0-2 1-12-3-13-5-20-4-9-3-18 2-26 0-1 0-2 1-3-5 34 23 39 28 49 1 9-7 15-13 20-6 3-11 4-16 4z m43-8c-1-3-1-2-1-3 0-1 0-3 0-4 0-1-1-2-1-3 0-1-1-2-1-3-1-1-1-2-1-3-1-1-1-1-2-2l0-1c-1-1-2-2-2-3-1 0-2-1-3-2l0 0c0-1-1-2-2-2-3-2-6-4-9-6-1-1-2-1-3-2-1-1-1-1-2-2-1-1-2-2-3-3 0 0-1-1-2-2 0-1-1-2-1-3-1-1-1-2-2-3 0-1-1-2-1-3 0-1-1-2-1-3 0-1 0-2 0-2 0-1 0-1 0-2 0-1-1-2-1-3 0-1 0-2 1-2 0-1 0-2 0-4 0-1 0-2 1-3 0-1 0-2 1-3 0-1 0-1 1-2l-31 12c-5 1-10 3-15 4l-8 2c-8 1-16 3-24 3-1 0-1 1-1 1-8 0-16 1-24 1-6 0-11-1-17-1-8 0-16-1-24-3-2 0-4 0-6-1-4-1-8-2-12-3l-6-1c-2-1-4-2-6-3l-4-2c0 0-1 0-1 0-1-1-2-1-4-2 0 0 0 0 0 0-2-1-3-2-5-2 0-1-1-1-2-2-1 0-1 0-1 0-2-1-3-2-4-2-1-1-2-2-3-2-1-1-2-1-3-2 0 0 0 0 0 0-1-1-2-1-3-2l0 0-2-2c0 0 0 0-1-1 0 0-1-1-2-1 0 0 0-1 0-1-1-1-2-1-2-2-1 0-1 0-1 0-1-1-1-2-2-3 0 0 0 0 0 0-1 0-2-1-2-2-1 0-1 0-1-1-1 0-2-1-3-2 0 0 0 0 0-1-1-1-2-2-3-3l-1 0c-2-3-4-5-6-7-3-2-5-4-8-6-2-1-5-3-8-5-2-1-5-2-8-4-3-1-6-2-9-3-5-1-11-3-16-4-1 0-2 0-3 0-1 0-2-1-3-1l-3-1c-2 0-3-1-4-1-1-1-2-2-3-2 0-1-1-2-2-3-1 0-2-1-3-2-1-1-1-2-2-3-1-1-2-2-2-3-1-1-1-2-2-3 0-1-1-2-1-3-1-1-1-2-2-4 0-1 0-2 0-3 0 0 0 0 0 0-1-1-1-3-1-4 0-1 0-1 0-2 0-1 0-1 0-2 0-1 0-2 1-3 0 0 0-1 1-2l0 0c0-1 1-2 1-2 1-1 1-2 2-3 0 0 1-1 2-2 1-1 2-1 3-2 3-3 3-4 8-6 0 0 1-1 2-1 0 0 0 0 0 0 0 0 0 0 0-1 0-1 1-2 1-3 0-1 1-2 1-3 0-1 1-2 1-2 0-1 0-1 0-1 1-1 1-2 2-3l2-3c1-1 1-2 2-2 1-1 2-2 3-3 0 0 0 0 0 0 1 0 2-1 2-2 1 0 2-1 3-1 1-1 2-1 3-2 1 0 2 0 3-1 0 0 0 0 1 0 0 0 1 0 1 0 0-7 0-14 1-17 1-2 7 6 13 15-1-9-2-20 0-23 1-3 9 7 16 18 94 22 179-43 188-134-2 14-19 22-27 20-4-10-11-22-22-30 1 9 1 18-1 26-3-12-9-23-17-33-12-1-25 5-31 14-1 1-1 2-1 2-1 1-1 2-1 3-1 1-1 2-1 3 0 1 0 2 0 3l0 2c0 0 0 1 0 2 1 1 1 2 1 3 1 1 1 2 2 3 2 6 2 11-2 14-1 1-2 1-2 2-1 0-2 0-2 0-1 0-1 1-1 1-1 0-2 0-3 0-1 1-2 1-3 1-1 0-2 0-3 0 0 0-1 0-2 0-1 0-2 0-3-1-1 0-1 0-2 0-1 0-2-1-3-1-1 0-2-1-3-1-1-1-1-1-2-2-31-20-13-67 8-80-8-2-16-3-18-5l0 0c5-4 11-7 18-9 8-3 17-6 21-7l0 0c11-2 22-3 33-2 59 4 107 48 116 107 0-1 0-2 0-3 1-3 1-5 2-8l0 0c0-1 0-2 0-3l0-1c0-1 0-2 0-3 1-2 1-3 1-5l0-2c0 0 0-1 0-2 0-1 0-1 0-2l0-2c0-1 0-2 0-3 0 0 0-1-1-1 0-1 0-2 0-3 0-1 0-1 0-1 0-2 0-2 0-4 0 0 0 0 0-1 0-1-1-2-1-4l0 0c0-1 0-2-1-4l0 0 0-3c0-1-1-1-1-1 0-1 0-2-1-4l0 0c0-1 0-2-1-4 0 0 0 0 0 0l-1-4c0-1-1-2-1-4-1-1-1-2-2-4 0-1-1-2-1-3l-1 0c0-2-1-3-1-4 0 0-1-1-1-1 0 0 0 0 0 0-9-18-21-33-37-45-1-1-2-1-3-2-1 0-1-1-1-1-1 0-2-1-3-2l0-1 0 0 6 1 0 0c4 1 7 1 10 2 1 0 2 0 3 1 1 0 2 0 2 0 1 0 2 1 3 1 1 0 2 0 2 0 14 4 26 8 39 13-21-29-49-52-82-67 15 1 30 4 45 8 53 16 98 51 125 100-6-31-18-60-36-85 13 8 25 18 35 29 30 31 49 70 56 112 5-21 6-42 4-63 95 133 8 271-29 307 0 0 0 1 0 1 0 0 0 0 0 0 0 0 0 0 0 0 0-2 0-3-1-5 0-3 0-6-1-9-1-3-1-6-2-9-1-2-2-5-3-8-2-3-3-5-4-8-2-3-3-5-5-8-2-2-4-4-6-7-1-2-4-4-6-6-1-1-2-3-4-4-1-1-2-1-3-2-2-2-4-4-7-5-3-2-5-4-8-5-3-1-5-2-8-4-3-1-6-2-9-2-3-1-6-2-9-2-3-1-6-1-9-1-2-1-4-1-6-1-3 0-6 1-9 1-3 0-6 0-9 1-3 1-6 1-9 2l0 0c3 1 6 1 9 1 3 1 6 2 9 2 3 1 5 2 8 3 3 1 6 3 9 4 2 1 5 3 8 4 2 2 5 4 7 6 2 1 5 3 7 6 2 2 4 4 6 6 2 2 4 5 5 7 1 1 1 1 1 1 2 3 3 5 4 7 2 2 3 5 4 8 1 3 2 5 3 8 1 3 2 6 2 9 1 3 2 6 2 9 0 3 0 6 0 9 0 2 0 4 0 6 0 3-1 6-1 9-1 3-1 6-2 9-1 3-2 6-3 8-1 3-2 6-4 9-1 2-2 5-4 7-2 3-4 5-5 8-2 2-4 4-6 6-2 1-3 3-4 4-6 4-12 9-18 13-1 0-2 1-3 1-4 3-8 4-12 5z"/>
<glyph glyph-name="node-js" unicode="&#57360;" d="M256 4c-7 0-13 2-19 5l-62 37c-9 5-5 7-2 8 13 4 15 5 28 12 2 1 3 1 5 0l47-28c2-1 4-1 6 0l185 106c1 1 2 3 2 5l0 214c0 2-1 4-3 5l-184 106c-2 1-4 1-6 0l-184-106c-2-1-3-3-3-5l0-214c0-2 1-4 3-4l50-30c28-13 45 3 45 19l0 210c0 3 2 6 5 6l23 0c3 0 6-3 6-6l0-210c0-37-20-58-55-58-11 0-19 0-42 12l-49 28c-12 7-19 20-19 34l0 213c0 13 7 26 19 33l185 107c11 7 27 7 38 0l185-107c12-7 20-20 20-33l0-214c0-13-8-26-20-33l-185-107c-5-3-12-5-19-5z m149 210c0 40-27 51-84 58-57 8-63 12-63 25 0 11 5 26 48 26 38 0 52-8 57-34 1-2 3-4 6-4l24 0c1 0 2 0 3 2 1 1 2 2 2 4-4 44-33 64-92 64-53 0-84-22-84-59 0-41 31-52 81-57 61-6 66-15 66-27 0-20-17-29-56-29-49 0-60 12-63 37-1 2-3 4-5 4l-24 0c-3 0-6-2-6-5 0-31 17-68 98-68 59 0 92 23 92 63z"/>
<glyph glyph-name="react" unicode="&#57361;" d="M418 335c-5 2-11 3-16 5 1 4 2 7 3 11 12 60 4 107-24 123-26 15-69 0-112-38-4-4-9-8-13-12-2 3-5 6-8 8-45 40-91 57-118 42-27-16-34-61-23-117 1-6 2-11 3-17-6-2-12-4-18-6-54-18-92-47-92-78 0-31 41-62 96-81 5-2 9-3 14-4-2-6-3-12-4-18-11-56-2-100 24-115 27-16 72 0 116 39 4 3 7 6 11 10 4-5 9-9 14-13 42-36 85-51 111-36 27 15 36 63 24 120-1 5-2 9-3 14 3 1 6 2 10 3 57 19 99 50 99 81 0 31-39 60-94 79z m-135 85c37 32 72 45 88 36 17-10 23-49 12-101 0-3-1-6-2-10-22 5-45 9-67 11-13 18-27 36-43 53 4 4 8 7 12 11z m-116-216c5-8 11-17 16-25-16 1-31 4-46 7 4 14 10 29 16 45 5-9 9-18 14-27z m-30 121c14 3 30 6 46 8-6-9-11-17-16-26-5-8-10-17-14-26-6 15-12 30-16 44z m27-69c7 14 14 27 22 40 7 14 16 27 24 39 15 1 30 2 46 2 16 0 31-1 46-2 8-12 17-25 24-38 8-14 15-27 22-41-7-14-14-27-22-41-7-13-15-26-24-39-15-1-30-1-46-1-16 0-31 0-46 1-8 13-16 26-24 39-8 14-15 27-22 41z m181-51c5 8 10 17 15 26 6-14 12-29 16-44-15-3-31-6-47-8 6 8 11 17 16 26z m14 76c-4 9-9 18-14 26-5 9-10 17-15 26 16-2 31-5 45-8-4-15-10-30-16-44z m-103 113c11-12 21-24 30-36-20 1-40 1-60 0 10 13 20 25 30 36z m-116 61c17 10 54-4 94-39 2-2 5-5 7-7-15-17-30-35-43-53-22-2-45-6-67-11-1 6-2 11-3 16-10 48-4 85 12 94z m-24-264c-4 2-9 3-13 4-21 7-45 18-63 31-10 7-17 18-18 30 0 19 31 42 77 58 5 2 11 4 17 5 7-21 15-43 25-63-10-21-18-43-25-65z m116-98c-16-15-35-27-56-35-11-5-24-6-35-1-16 9-23 44-14 92 1 5 2 11 4 16 22-4 45-8 68-9 13-19 27-37 43-54-3-3-6-6-10-9z m25 25c-10 11-21 23-30 36 9 0 19-1 29-1 10 0 20 1 30 1-9-13-19-25-29-36z m131-30c-1-13-7-24-17-32-16-9-50 3-86 35-5 3-9 7-13 11 15 17 29 35 42 54 23 2 46 5 68 10 1-4 2-8 3-12 5-22 6-44 3-66z m18 107c-3-1-6-2-9-2-7 21-15 43-25 63 9 21 17 42 24 63 5-1 10-3 15-4 47-16 80-40 80-58 0-20-35-45-85-62z m-150 15c25 0 46 21 46 46 0 25-21 46-46 46-25 0-46-21-46-46 0-25 21-46 46-46z"/>
<glyph glyph-name="express" unicode="&#57362;" d="M507 118c-19-4-30 0-40 15-23 34-48 67-72 100-3 4-6 8-10 14-29-39-58-76-84-114-10-14-20-20-38-15l108 145-101 130c18 4 30 2 40-14 23-34 49-66 75-100 26 34 51 66 75 100 10 14 20 19 37 14-13-18-26-35-39-52-17-23-34-46-52-68-7-8-6-13 0-21 34-44 67-88 101-134z m-502 147c3 14 5 29 9 43 24 86 123 122 190 69 40-32 50-75 48-125l-224 0c-3-89 61-142 143-115 28 9 45 32 53 60 5 14 12 16 25 12-7-35-22-64-54-83-48-27-117-18-153 20-21 22-30 50-34 80-1 5-2 10-3 15 0 8 0 16 0 24z m24 6l202 0c-2 64-42 110-96 110-60 1-104-44-106-110z"/>
<glyph glyph-name="hourglass" unicode="&#57364;" d="M399 395c0-15-8-31-24-49-17-18-33-35-50-51-17-16-25-29-25-39 0-10 8-23 25-39 17-16 33-32 50-50 16-17 24-34 24-49 0 0 0-61 0-61 0-11-14-24-44-37-29-13-62-20-99-20-37 0-70 7-99 20-30 13-44 26-44 37 0 0 0 61 0 61 0 15 8 32 24 49 17 18 33 34 50 50 17 16 25 29 25 39 0 10-8 23-25 39-17 16-33 33-50 51-16 18-24 34-24 49 0 0 0 61 0 61 0 11 14 23 44 36 30 13 63 20 99 20 36 0 69-7 99-20 30-13 44-25 44-36 0 0 0-61 0-61m-246 58c0 0-10-8-10-8-1-2 0-5 2-7 32-17 69-26 111-26 45 0 83 8 113 25 4 4 2 9-9 16-32 18-67 27-103 27-41 0-76-9-104-27m116-197c0 6 1 12 2 17 2 5 5 11 10 17 4 6 8 10 10 13 2 2 7 7 16 15 8 9 13 13 15 15 31 31 47 52 47 62 0 0 1 26 1 26-34-19-72-28-114-28-42 0-80 9-114 28 0 0 2-26 2-26 0-11 16-31 46-62 3-2 6-6 12-11 5-5 9-9 12-11 0 0 9-10 9-10 0 0 3-4 9-11 6-7 8-10 6-10-2 0-1-4 4-12 5-8 6-12 2-12 0-3 0-7-1-10 0-3-1-6-3-9-2-3-3-6-4-8-1-3-3-5-6-9 0 0-6-8-6-8 0 0-2-2-7-8-6-5-8-8-9-7 0 0-3-3-9-9-6-5-9-8-9-8-30-30-46-51-46-62 0 0 0-34 0-34 3 1 14 5 34 12 20 6 36 14 47 22 12 8 18 18 18 29 0 11 4 16 13 16 9 0 13-5 13-16 0-11 6-21 17-29 11-8 28-16 48-22 21-7 33-11 35-12 0 0 0 34 0 34 0 10-16 31-47 62-2 2-5 5-11 10-6 6-10 10-11 11-2 2-5 5-10 10-4 5-7 8-9 11-2 3-4 6-6 10-2 5-4 8-5 12 0 4-1 8-1 12"/>
<glyph glyph-name="watch" unicode="&#57371;" d="M272 352c0-9-7-16-16-16-9 0-16 7-16 16 0 9 7 16 16 16 9 0 16-7 16-16z m0-192c0-9-7-16-16-16-9 0-16 7-16 16 0 9 7 16 16 16 9 0 16-7 16-16z m-96 96c0-9-7-16-16-16-9 0-16 7-16 16 0 9 7 16 16 16 9 0 16-7 16-16z m192 0c0-9-7-16-16-16-9 0-16 7-16 16 0 9 7 16 16 16 9 0 16-7 16-16z m-164-68c0-9-7-16-16-16-9 0-16 7-16 16 0 9 7 16 16 16 9 0 16-7 16-16z m0 136c0-9-7-16-16-16-9 0-16 7-16 16 0 9 7 16 16 16 9 0 16-7 16-16z m136-136c0-9-7-16-16-16-9 0-16 7-16 16 0 9 7 16 16 16 9 0 16-7 16-16z m76 100c-1 0-2-1-3-1-6 28-19 53-37 74l-23 125c-3 15-16 26-31 26l-128 0c-16 0-29-11-32-26l-22-121c-27-29-44-67-44-109 0-41 16-78 42-107l23-123c2-15 16-26 31-26l128 0c15 0 29 11 31 26l23 123c19 21 33 47 39 76 1 0 2-1 3-1 18 0 32 14 32 32 0 18-14 32-32 32z m-222 192l128 0 16-86c-24 14-51 22-80 22-30 0-57-8-80-22z m126-448l-128 0-16 86c24-14 51-22 80-22 29 0 56 8 80 22z m-64 96c-71 0-128 57-128 128 0 71 57 128 128 128 71 0 128-57 128-128 0-71-57-128-128-128z m79 208c-2 2-5 2-7 0l-83-69c-3-3-5-7-5-11 0-4 2-8 5-11 3-3 7-5 11-5 4 0 8 2 11 4l30 36 39 48c1 3 1 6-1 8z"/>
<glyph glyph-name="calendar" unicode="&#57363;" d="M469 464l-69 0 0 32c0 9-7 16-16 16-9 0-16-7-16-16l0-32-96 0 0 32c0 9-7 16-16 16-9 0-16-7-16-16l0-32-96 0 0 32c0 9-7 16-16 16-9 0-16-7-16-16l0-32-69 0c-24 0-43-19-43-43l0-378c0-24 19-43 43-43l426 0c24 0 43 19 43 43l0 378c0 24-19 43-43 43z m11-421c0-6-5-11-11-11l-426 0c-6 0-11 5-11 11l0 378c0 6 5 11 11 11l69 0 0-32c0-9 7-16 16-16 9 0 16 7 16 16l0 32 96 0 0-32c0-9 7-16 16-16 9 0 16 7 16 16l0 32 96 0 0-32c0-9 7-16 16-16 9 0 16 7 16 16l0 32 69 0c6 0 11-5 11-11z m-368 277l64 0 0-48-64 0z m0-80l64 0 0-48-64 0z m0-80l64 0 0-48-64 0z m112 0l64 0 0-48-64 0z m0 80l64 0 0-48-64 0z m0 80l64 0 0-48-64 0z m112-160l64 0 0-48-64 0z m0 80l64 0 0-48-64 0z m0 80l64 0 0-48-64 0z"/>
<glyph glyph-name="mononoke" unicode="&#57365;" d="M228 503c-2-2-59-6-89-6-16 0-18-1-18-16-1-23 10-59 24-78 16-22 48-47 54-44 2 1 2 2 2 3-8 21 10 76 40 124 10 16 9 14 7 16-1 2-18 3-20 1m-196-201c-1-1-2-6-3-11 0-5-1-12-2-15-1-4-1-6-1-8 1-1 1-6 1-12 0-5 1-13 1-17 1-4 1-10 2-13 1-11 1-15 4-22 4-16 19-51 29-70 12-21 20-35 26-43 4-5 9-11 11-15 8-11 45-48 48-48 1 0 2-1 4-2 8-6 21-10 24-6 1 1 1 2-7 30-3 8-6 20-7 26-1 6-4 17-6 26-13 61-15 101-3 133 3 9 3 13 2 13-1 0-2 1-3 1 0 3-5 5-14 6-14 3-26 8-46 17-33 14-45 21-52 28-5 5-6 5-8 2m438-2c-1-1-4-1-8-1-9-1-56-10-62-13-1 0-2-1-2 0-1 0-3 0-5-1-2-1-5-2-6-2-2-1-4-1-6-2-1-1-4-2-4-2-2-1-15-5-24-9-8-3-24-11-27-13-2-1-4-2-4-2-7 0-7-6-1-18 3-5 5-11 5-12 1-4 6-16 9-19 1-1 1-3 2-4 0-1 1-3 2-5 1-2 2-4 2-4-1 0 0-1 1-3 1-2 7-21 9-27 0-1 1-6 3-11 10-40 14-86 9-122-2-13-2-23 1-24 1 0 27 24 34 33 2 2 4 5 5 6 2 2 3 3 3 4 0 0 2 2 4 5 2 2 5 6 6 7 0 2 2 4 2 4 1 1 3 4 4 7 2 3 4 6 5 6 0 1 2 4 4 8 3 4 5 7 5 7 1 0 2 2 2 4 1 2 2 3 2 3 1 0 1 2 2 3 0 2 1 4 2 4 0 1 1 3 2 5 0 2 1 3 1 3 1 0 1 2 2 4 0 2 1 3 1 3 1 0 1 1 1 2 0 1 2 5 3 8 22 48 35 110 31 150-1 5-1 12-1 14 0 6-8 9-14 4"/>
<glyph glyph-name="yarn" unicode="&#57366;" d="M256 512c-141 0-256-115-256-256 0-141 115-256 256-256 141 0 256 115 256 256 0 141-115 256-256 256z m16-88c4 0 8-1 12-3 2-2 6-4 16-24 6 1 10 0 11 0 5-1 8-4 10-8 10-20 12-55 7-77-5-26-16-43-24-55 7-7 17-19 24-39 5-14 7-28 6-43 4 2 9 5 13 7 13 8 32 20 54 20 16 0 27-9 29-24 2-13-7-26-20-29-14-3-20-6-39-18-26-17-54-26-64-29-4-4-10-6-15-8-16-3-70-6-74-6l-1 0c-17 0-26 5-31 10-14-7-32-4-45 3-9 5-14 15-13 25-1 1-2 2-3 4-3 5-11 20-10 41 2 16 12 30 19 37 0 16 3 33 9 48 6 15 19 29 28 37-7 11-14 29-7 47 5 13 9 20 18 23l-1 0c5 2 9 3 11 6 12 14 30 22 49 23 1 2 2 4 3 6 6 14 13 22 21 25 3 1 5 1 7 1z m0-14c-10-1-21-33-21-33 0 0-27 4-48-18-4-5-10-8-16-10-2 0-4 0-9-14-8-21 13-45 13-45 0 0-25-18-34-40-11-24-8-48-8-48 0 0-18-16-19-32-1-14 3-26 8-32 4-8 10-4 10-4 0 0-12-14 0-20 10-5 27-8 36 1 7 6 8 21 10 27 1 2 3-2 5-4 2-2 6-4 6-4 0 0-17-7-10-23 2-5 10-9 23-8 5 0 57 3 70 6 8 2 11 6 11 6 0 0 34 9 64 29 20 13 28 16 44 20 13 3 12 23-6 23-17 0-33-9-46-18-25-15-38-14-38-14l0 1c-2 2 8 27-3 57-11 32-30 40-28 42 6 11 22 28 28 60 4 19 3 50-6 67-1 3-15-5-15-5 0 0-13 29-17 31-1 1-2 2-4 1z"/>
<glyph glyph-name="postgresql" unicode="&#57367;" d="M365 512c-19 0-39-3-58-9l-2 0c-12 2-24 3-36 3-25 1-47-5-64-15-17 6-53 16-91 14-26-2-54-9-75-32-21-22-32-57-30-104 0-13 4-34 10-61 6-27 15-59 26-89 11-29 22-55 41-73 9-9 21-16 36-16 11 1 20 5 28 12 4-5 9-7 12-9 5-3 10-5 15-6 9-2 24-5 42-2 6 1 12 3 18 5l1-20c1-23 1-43 8-61 1-3 4-18 16-31 11-13 34-22 59-16 18 4 42 11 57 32 15 22 22 53 23 103 1 3 1 5 1 7l4 0 0 0c20-1 41 2 58 10 16 7 28 14 36 27 2 3 5 7 5 14 1 7-3 17-9 22-13 10-21 6-30 4-8-2-17-3-25-3 25 41 42 86 52 125 6 23 10 44 10 63 0 18-1 35-12 49-35 44-84 57-122 57l-4 0z m-1-14c36 1 82-9 115-51 7-10 9-23 9-41 0-17-3-37-9-59-11-43-32-93-62-138 1-1 2-2 3-2 7-3 21-5 49 1 7 1 12 2 18-2 2-2 4-5 3-9 0-3-1-5-2-7-6-8-16-16-30-22-12-6-30-9-45-9-8 0-15 0-21 2l-1 0c-2-22-7-67-11-87-3-17-8-30-17-40-10-9-23-15-41-19-22-5-38 0-48 9-11 9-16 20-18 28-2 4-3 11-4 19-1 10-2 21-3 31 0 18 0 36 0 54-9-9-21-14-33-17-15-2-28 0-36 2-4 1-8 3-11 5-4 2-7 4-9 8-2 3-2 6-2 8 1 3 3 6 5 7 4 4 10 6 18 7 16 4 21 6 24 8 3 3 6 7 12 14 0 0 0 0 0 1-10 0-20 2-29 7-3-3-19-20-39-44-9-10-18-16-28-17-9 0-18 5-26 12-15 15-27 40-37 68-11 28-19 60-25 87-6 27-10 48-10 59-2 44 8 74 26 93 18 19 42 26 66 28 43 2 83-13 91-16 16 11 37 17 62 17 12 0 24-2 36-5l0 0c6 2 11 4 16 5 15 3 29 5 44 5z m4-14l-3 0c-13 0-25-2-37-4 27-12 47-30 61-48 10-13 18-26 24-41 3-6 4-10 5-14 0-2 1-3 1-5 0-1 0-2-1-3 0 0 0 0 0 0 1-19-4-32-4-50-1-13 3-28 4-44 0-16-2-33-12-50 1-1 2-2 3-3 27 42 46 89 56 129 6 21 8 40 9 56 0 15-3 26-7 31-28 37-67 46-99 46z m-103-5c-25 0-43-8-57-19-14-12-23-28-29-45-8-20-10-39-11-51l0 0c9 5 18 8 28 11 11 2 23 3 33-1 10-4 19-14 22-28 15-70-4-95-12-115-2-7-5-14-7-22 1 1 2 1 3 1 5 0 9-1 11-2 8-3 13-10 16-17 0-2 1-4 1-6 0-1 0-2 0-3 0-26 0-53 1-79 0-12 1-22 2-30 1-8 2-14 3-16 3-7 7-16 14-22 7-6 17-10 36-6 17 4 27 8 34 15 6 7 10 17 13 32 4 23 12 88 12 100 0 9 1 16 4 21 3 6 8 9 12 11 2 1 4 2 6 2-2 3-4 5-6 7-5 7-10 15-14 24-1 3-3 7-5 10-3 5-7 11-10 19-8 14-16 31-20 48-5 17-5 35 6 47 9 11 26 16 51 13 0 3-1 5-2 7-6 14-13 27-22 38-22 28-57 55-110 56z m-141-1c-3 0-6-1-8-1-22-1-42-7-57-23-14-15-24-40-22-82 1-8 4-30 10-57 6-26 14-57 24-85 10-27 23-51 34-63 6-5 11-7 16-7 4 0 10 3 17 11 12 15 25 29 38 43-19 17-28 42-25 68 3 15 3 30 3 42-1 11-1 19-1 23l0 1 0 0c0 25 4 49 12 72 6 16 15 32 28 45-13 5-36 11-61 12-3 0-6 1-8 1z m264-113c-14 0-22-4-27-9-6-7-6-19-2-34 3-15 11-32 18-46 4-7 7-13 10-18 3-5 5-9 6-12 2-3 3-5 4-8 6 12 7 24 6 36 0 15-4 30-3 46 0 18 4 30 4 44-5 0-10 1-16 1z m-175-3c-5 0-9 0-14-1-8-2-16-6-24-10-3-1-5-3-8-5l0 0c0-3 1-11 1-22 0-12 0-28-2-44-6-37 21-67 52-67 2 7 5 15 8 23 8 23 26 40 11 107-2 11-7 15-13 18-4 1-8 1-11 1z m169-4l1 0c1 0 2 0 3 0 1-1 2-1 3-2 1 0 2-1 2-2l0 0c0-1 0-2-1-3 0-1-1-2-2-3-2-3-5-4-8-5-3 0-7 1-9 2-1 1-2 2-3 3-1 1-1 2-1 3 0 1 0 2 1 2 0 1 1 2 2 2 2 2 5 2 8 3 1 0 2 0 4 0z m-167-4c1 0 2 0 3 0 4 0 6-1 9-2 1-1 2-2 2-3 1-1 2-2 2-3-1-2-1-3-2-4-1-1-2-2-3-2-3-2-6-3-10-3-3 1-6 2-9 5-1 1-1 2-2 3-1 2-1 3-1 4 0 3 2 4 4 4 2 1 4 1 7 1z m193-156l0 0c-3-1-6-2-8-3-2-1-4-2-5-4-1-3-3-7-2-15 1 0 2-1 3-1 4-1 10-2 17-2 13 0 30 3 39 8 7 3 14 7 20 13-30-6-47-5-57-1-3 2-5 3-7 5z m-171-2l-1 0c-1 0-3-1-6-4-7-9-10-14-16-19-6-5-14-7-30-10-3-1-7-2-10-3 1-1 1-1 2-2 2-1 5-2 7-3 7-1 18-3 30-1 12 2 24 7 34 22 2 2 2 6 1 10-2 4-5 7-7 8-1 1-3 2-4 2z"/>
<glyph glyph-name="nuxtjs" unicode="&#57376;" d="M421 80l0 1c1 0 1 1 1 2l0 0c2 4 2 9 2 13l0 0c-1 5-3 9-5 13l0 0-114 200-17 30-131-230c-2-4-3-8-4-13l0 0c-1-5 0-10 2-15l0 0c0-1 0-2 1-2l0 0c3-6 10-13 26-13l212 0c3 0 19 1 27 14z m-133 198l104-182-208 0z m219-169l-150 264c-2 2-10 16-25 16-7 0-17-2-25-16l-19-34 17-31 27 48 148-260-56 0c0-5 0-9-2-13l0 0c0-1 0-2-1-3l0 0 0-1c-8-12-24-13-27-13l88 0c3 0 19 1 27 13 3 6 6 16-2 30z m-351-30l-1 2 0 0c-2 5-3 10-2 15l0 0-121 0 180 316 59-103 17 30-52 91c-1 2-10 16-25 16-6 0-16-3-24-17l-182-320c-2-3-9-17-2-30 4-6 11-13 27-13l152 0c-15 0-23 7-26 13z"/>
<glyph glyph-name="eslint" unicode="&#57377;" d="M155 317l97 56c2 2 5 2 8 0l97-56c3-1 4-4 4-7l0-112c0-3-1-5-4-7l-97-56c-3-1-6-1-8 0l-97 56c-3 2-4 4-4 7l0 112c0 3 1 6 4 7z m354-51l-116 202c-5 8-12 13-21 13l-232 0c-9 0-16-5-21-13l-116-202c-4-7-4-16 0-23l116-201c5-7 12-11 21-11l232 0c9 0 16 4 21 11l116 201c4 7 4 16 0 23z m-96-97c0-3-2-6-5-7l-148-86c-2-1-6-1-8 0l-148 86c-3 1-4 4-5 7l0 171c0 3 2 5 5 7l148 85c2 2 5 2 8 0l148-85c3-2 4-4 5-7z"/>
<glyph glyph-name="thumbs-up" unicode="&#57369;" d="M91 128c0 5-1 9-5 13-4 3-8 5-13 5-5 0-9-2-13-5-3-4-5-8-5-13 0-5 2-9 5-13 4-4 8-5 13-5 5 0 9 1 13 5 4 4 5 8 5 13z m46 146l0-183c0-5-2-9-5-12-4-4-8-6-13-6l-82 0c-5 0-10 2-13 6-4 3-6 7-6 12l0 183c0 5 2 10 6 13 3 4 8 6 13 6l82 0c5 0 9-2 13-6 3-3 5-8 5-13z m338 0c0-16-5-30-15-42 3-9 4-16 4-22 1-14-4-28-12-39 3-11 3-22 0-34-3-10-8-19-16-26 2-22-3-39-14-52-12-15-31-22-56-22l-37 0c-12 0-26 1-41 4-15 3-26 6-35 8-8 3-19 7-34 12-24 8-39 12-45 12-5 0-10 2-13 6-4 3-6 7-6 12l0 184c0 4 2 8 6 12 3 4 7 5 12 6 4 0 12 6 22 17 9 11 19 22 28 34 13 17 23 28 29 35 4 3 7 8 9 13 3 6 4 11 5 14 1 4 2 9 4 17 1 8 3 14 4 18 1 4 2 9 5 15 3 5 6 10 10 14 3 4 8 5 13 5 8 0 16-1 23-3 7-2 13-4 17-7 5-3 9-7 12-12 3-4 5-9 7-12 1-4 2-9 3-15 1-5 1-10 2-13 0-2 0-6 0-11 0-7-1-14-3-21-2-8-4-13-5-18-2-4-5-9-8-16-1-1-2-2-3-5-1-2-3-4-3-6-1-2-2-4-3-7l80 0c14 0 27-5 38-16 11-11 16-24 16-39z"/>
<glyph glyph-name="thumbs-down" unicode="&#57368;" d="M91 347c0-5-1-9-5-12-4-4-8-6-13-6-5 0-9 2-13 6-3 3-5 7-5 12 0 6 2 10 5 13 4 4 8 6 13 6 5 0 9-2 13-6 4-3 5-7 5-13z m46-146l0 183c0 5-2 9-5 13-4 3-8 5-13 5l-82 0c-5 0-10-2-13-5-4-4-6-8-6-13l0-183c0-5 2-9 6-13 3-3 8-5 13-5l82 0c5 0 9 2 13 5 3 4 5 8 5 13z m323 43c10-12 15-26 15-43 0-15-5-28-16-38-11-11-24-17-38-17l-80 0c1-2 2-5 3-7 0-1 2-4 3-6 1-2 2-4 3-5 3-7 6-12 7-16 2-4 4-10 6-17 2-7 3-15 3-22 0-4 0-8 0-11-1-3-1-7-2-13-1-6-2-10-3-14-2-4-4-8-7-13-3-5-7-9-12-12-4-3-10-5-17-7-7-2-15-3-23-3-5 0-10 2-13 5-4 4-7 9-10 15-3 5-4 10-5 15-1 4-3 10-4 17-2 8-3 14-4 17-1 4-2 8-5 14-2 6-5 10-9 14-6 6-16 18-29 34-9 12-19 24-28 35-10 11-18 16-22 17-5 0-9 2-12 5-4 4-6 8-6 13l0 183c0 5 2 9 6 13 3 3 8 5 13 5 6 0 21 5 45 13 15 5 26 9 34 11 9 3 20 5 35 8 15 3 29 5 41 5l37 0c25-1 44-8 56-22 11-14 16-31 14-52 8-7 13-16 16-27 3-12 3-23 0-33 8-12 13-25 12-40 0-6-1-13-4-21z"/>
<glyph glyph-name="reason" unicode="&#57378;" d="M0 512l0-512 512 0 0 512z m246-467l-29 54-38 0 0-54-51 0 0 196 88 0c52 0 82-25 82-69 0-30-13-51-35-63l41-64z m242 0l-157 0 0 196 154 0 0-41-103 0 0-36 93 0 0-41-93 0 0-37 106 0 0-41z m-239 126c0-20-12-31-33-31l-37 0 0 60 37 0c21 0 33-10 33-30z"/>
<glyph glyph-name="svelte" unicode="&#57379;" d="M441 444c-47 68-138 88-209 45l-119-76c-33-20-55-54-62-91-6-32-1-65 14-93-10-15-17-33-20-51-7-39 2-78 25-110 47-68 138-88 209-45l119 76c33 20 55 53 62 91 5 32 0 64-15 92 32 50 30 114-4 162z m-221-383c-38-10-79 5-101 38-14 19-19 43-15 66l2 12 2 7 7-5c14-10 29-18 46-23l5-2-1-4c0-6 1-12 5-18 7-10 19-14 31-11 2 1 5 1 7 3l119 76c6 4 10 9 11 16 2 7 0 14-4 20-7 10-19 14-31 11-2 0-5-1-7-3l-45-28c-43-26-98-14-126 27-14 19-19 43-15 66 4 23 18 44 38 56l118 76c8 4 16 8 25 10 38 10 79-5 101-37 16-23 21-51 12-78l-2-7-6 4c-14 11-30 19-47 24l-4 1 0 4c1 7-1 13-4 18-7 10-20 15-31 12-3-1-5-2-8-3l-119-77c-6-4-10-9-11-16-1-7 1-15 4-20 7-10 20-15 31-12 3 1 5 2 8 3l45 29c8 5 16 9 24 11 39 10 79-5 102-38 14-19 19-42 15-66-4-23-17-43-37-55l-119-76c-8-5-16-8-25-11z"/>
<glyph glyph-name="firebase" unicode="&#57380;" d="M83 178l50 324c2 11 17 14 22 4l54-102z m358-79l-48 299c0 4-4 7-8 9-4 1-8 0-11-3l-303-305 167-95c11-5 24-5 34 0z m-136 261l-39 74c-2 4-6 6-10 6-4 0-8-2-10-6l-171-306z"/>
<glyph glyph-name="xd" unicode="&#57381;" d="M421 506l-330 0c-24 0-47-10-64-27-18-17-27-40-27-64l0-318c0-24 9-47 27-64 17-17 40-27 64-27l330 0c24 0 47 10 64 27 17 17 27 40 27 64l0 318c0 24-10 47-27 64-17 17-40 27-64 27z m69-401c1-20-8-40-22-54-15-15-34-23-55-23l-314 0c-43 0-78 34-78 77l0 302c0 43 35 77 78 77l314 0c43 0 77-34 77-77z m-288 167l60-115c1-1 1-3-1-3l-37 0c-3 0-4 0-5 3-13 28-27 56-42 86l0 0c-13-29-27-58-41-87 0-1-2-2-3-2l-36 0c-2 0-2 2-1 3l59 111-57 113c-1 2 0 3 1 3l37 0c2 0 3 0 4-2 14-29 27-57 40-86l0 0c13 28 26 58 39 85 2 2 2 3 4 3l35 0c1 0 2-1 1-3z m71-35c0 50 33 89 85 89 5 0 7 0 11-1l0 57c0 1 1 2 2 2l34 0c2 0 2-1 2-2l0-196c0-5 0-13 1-20 0-2 0-2-1-3-17-8-36-12-55-12-46 0-79 28-79 86z m96 55c-4 1-8 2-12 2-27 0-46-21-46-55 0-39 19-55 44-55 5 0 10 0 14 2z"/>
<glyph glyph-name="apollo" unicode="&#57382;" d="M320 155l56 0-88 229-62 0-88-229 55 0 15 39 83 0-15 43-55 0 36 98z m183 169c-1 4-4 7-7 8-3 2-6 3-10 2-7-2-11-10-9-17 6-20 8-40 8-61 0-126-103-229-229-229-126 0-229 103-229 229 0 126 103 229 229 229 54 0 105-19 146-53-1-3-2-8-2-12 0-18 14-32 32-32 18 0 32 14 32 32 0 18-14 32-32 32-4 0-7 0-10-1-46 39-105 61-166 61-141 0-256-115-256-256 0-141 115-256 256-256 141 0 256 115 256 256 0 23-3 46-9 68z"/>
<glyph glyph-name="nextjs" unicode="&#57383;" d="M380 32c-2-1-2-1 0 0 1 0 1 0 2 0 0 1 0 1-2 0z m4 2c-1-1-1-1 0 0 0 0 1 0 1 0 0 1 0 1-1 0z m2 2c-1-1-1-1 0-1 1 0 1 1 2 1 0 0-1 0-2 0z m3 1c-1-1-1-1 0 0 1 0 1 0 1 1 0 0 0 0-1-1z m3 2c-1-1-2-2 0-1 1 1 2 2 2 2-1 0-1 0-2-1z m-153 473c-1 0-4-1-7-1-73-6-141-46-184-106-24-33-40-71-46-112-2-14-2-18-2-37 0-19 0-23 2-37 14-97 83-177 175-207 17-5 35-9 55-11 7-1 41-1 48 0 35 3 64 12 93 27 4 2 5 2 4 3-14 18-28 37-41 56l-41 55-51 76c-18 25-35 51-52 76 0 0-1-34-1-75 0-72 0-75-1-77-1-2-2-3-4-4-2-1-3-1-11-1l-8 0-3 1c-1 1-2 2-3 4l-1 2 0 100 0 101 2 2c1 1 2 2 3 3 3 1 3 1 12 1 10 0 12 0 15-3 20-31 41-62 61-93 34-51 79-120 101-153l41-62 2 2c19 13 37 28 52 46 33 37 54 82 61 131 2 14 2 18 2 37 0 19 0 23-2 37-14 96-83 177-175 207-18 5-36 9-54 11-4 1-38 1-42 1z m105-155c2-1 4-3 5-6 1-1 1-29 1-92l-1-90-15 25-16 24 0 65c0 43 0 66 0 68 1 2 3 5 5 6 2 1 3 1 11 1 7 0 8 0 10-1z"/>
<glyph glyph-name="twitter" unicode="&#57384;" d="M481 395c-13-18-28-34-46-47 0-3 0-7 0-12 0-25-3-50-11-74-7-25-18-49-33-71-14-23-32-43-52-61-21-17-45-31-74-41-29-11-60-16-92-16-52 0-99 14-142 42 7-1 14-2 22-2 43 0 81 14 115 40-20 0-38 6-54 18-16 12-27 27-33 46 7-1 13-2 18-2 8 0 16 1 24 4-21 4-39 15-53 31-14 17-21 37-21 59l0 1c13-7 27-11 42-11-13 8-23 19-30 32-8 14-11 29-11 44 0 17 4 33 12 47 23-28 51-51 84-68 33-17 69-27 107-29-2 8-3 15-3 22 0 25 9 47 27 65 18 18 40 27 66 27 26 0 49-10 67-29 21 4 40 11 59 22-7-22-21-39-41-51 18 2 35 7 53 14z"/>
<glyph glyph-name="storybook" unicode="&#57385;" d="M349 507l-3-58c0-3 4-5 6-3l23 17 19-15c1-1 3-1 4 0 1 0 2 2 2 3l-2 59 28 2c7 0 14-2 19-7 6-5 9-11 9-19l0-460c0-7-3-14-8-19-5-5-12-7-19-7l-344 15c-13 1-24 12-24 25l-16 422c-1 7 2 14 6 19 5 5 11 8 18 9l281 17z m-66-193c0-10 68-6 77 1 0 69-37 105-104 105-67 0-104-37-104-92 0-95 128-96 128-148 0-15-7-24-23-24-20 0-29 11-28 46 0 8-77 10-80 0-6-86 48-111 109-111 59 0 106 32 106 89 0 102-130 100-130 150 0 20 15 23 24 23 9 0 26-1 25-40z"/>
<glyph glyph-name="d3js" unicode="&#57392;" d="M284 256c0 134-109 243-243 243l-41 0 0-107 41 0c75 0 136-61 136-136 0-75-60-136-136-136l-41 0 0-107 41 0c134 0 243 109 243 243z m228 95c0 81-66 148-148 148l-171 0c42-27 77-63 100-107l71 0c23 0 41-19 41-41 0-23-18-42-41-42l-41 0c6-35 6-71 0-106l41 0c23 0 41-19 41-42 0-23-18-41-41-41l-71 0c-23-44-58-80-100-107l171 0c35 0 68 12 95 34 62 53 71 146 19 209 22 26 34 60 34 95z"/>
</font>
</defs>
</svg>
